<svg id="Capa_1" data-name="Capa 1" xmlns="http://www.w3.org/2000/svg" viewBox="0 0 1190.55 841.89"><title>LOGO PAIS uti</title><path d="M774,716.44a4,4,0,0,1-4,4h0a4,4,0,0,1-4-4V524a4,4,0,0,1,4-4h0a4,4,0,0,1,4,4Z" style="fill:#5ea443"/><path d="M522,429.92,320.47,243.25s-10.87-9.16-25.06-9.16h-1.17l-.58,0h-.93c-14.2,0-25.05,9.2-25.05,9.2l-173,158.87s-27.57,31.31,6.27,60.12c0,0,30.81,22.42,56.36,0,22.26-19.52,68.28-61.61,109.68-99.92C281.2,350,291.67,341,294,338.92c4.55,4.16,43.33,39.59,78.77,71.19,36.46,33.73,74.56,68.95,86.56,79.94,25.05,23,56.37,0,56.37,0C549.56,461.24,522,429.92,522,429.92Z" style="fill:#c20d19"/><path d="M293.56,234.07h0Z" style="fill:#c20d19"/><path d="M558.08,125.57h0Z" style="fill:#858479"/><path d="M780.48,314.66l-193.28-179s-11.91-10.1-27.5-10.1h-1c-15.54.05-27.4,10.09-27.4,10.09L373.73,275.23,443,340.49c45.3-39.75,115.76-100.3,115.76-100.3h.91s97.94,90.67,151,139.67Z" style="fill:#858479"/><path d="M873.32,241.93s11.21-9.49,25.87-9.49h.91c14.65,0,25.83,9.49,25.83,9.49l153.41,125s37.66,26.17,14.23,68.25c-30.48,32.87-64.21,6.67-64.21,6.67-42.62-37.39-129.3-101.53-129.3-101.53h-.87S762.5,468.45,736.62,492.17s-58.21,0-58.21,0c-35-29.76-6.48-62.1-6.48-62.1Z" style="fill:#5ea443"/><path d="M651.59,379.19S463.77,461.1,622.23,585.65c62.2,56.27-54.52,132.43-54.52,132.43l133.55.75S777.77,612,661.74,531.6C545.58,457.11,651.59,379.19,651.59,379.19Z" style="fill:#6cb7cc"/><path d="M351.4,719.13l-9.94-11.76V599.81l-.07-.07c0-32.88-28.17-59.54-60.75-59.57h-.07c-32.64,0-60.78,26.7-60.78,59.64,0,.84-.06,107.86-.06,107.86l-9.88,11.46H262s-.09-64.18-.09-64.62h37.51c0,.44,0,64.62,0,64.62ZM299.24,617H261.87c0-.21-.05-22.61,0-22.81,3.59-15.49,15.23-16.64,18.68-16.66,7.68-.05,16.44,5.32,18.71,16.73C299.29,594.5,299.25,616.83,299.24,617Z" style="fill:#858479"/><circle cx="384.14" cy="540.17" r="21.15" transform="translate(-269.44 429.84) rotate(-45)" style="fill:#6cb7cc"/><path d="M478.87,610.26v0c-10.23-1.31-15.45-7.07-15.39-17.48S470.06,576,480.33,576s18.61,6.58,18.61,16.86c0,.18,0,.36,0,.55h0l27.8-26.72a53.55,53.55,0,0,0-100,26.72c0,29.08,16.42,53.45,52.09,55.27v.07s15.26,1.33,14.63,16.86c-.4,10.14-7.41,14.63-15.14,14.63-10.27,0-17.55-4.36-17.55-14.64h-.31l-27.79,27.16a53.51,53.51,0,0,0,46.16,26.4c34.15,0,55.3-24,55.3-53.56S514.43,610.7,478.87,610.26Z" style="fill:#5ea443"/><path d="M819.3,538.84a14.18,14.18,0,0,1-.85,5.07,9.79,9.79,0,0,1-2.47,3.71,10.64,10.64,0,0,1-4,2.3,17.38,17.38,0,0,1-5.54.79h-2.7v10.84a.75.75,0,0,1-.16.48,1.13,1.13,0,0,1-.53.34,6.56,6.56,0,0,1-1,.21,15.84,15.84,0,0,1-3.18,0,6.47,6.47,0,0,1-1-.21,1,1,0,0,1-.52-.34.81.81,0,0,1-.15-.48V531a2.5,2.5,0,0,1,.61-1.85,2.15,2.15,0,0,1,1.61-.62H807c.76,0,1.49,0,2.18.09a21.66,21.66,0,0,1,2.48.39,10.94,10.94,0,0,1,2.93,1.12,8.59,8.59,0,0,1,4.13,5A12.1,12.1,0,0,1,819.3,538.84Zm-6.86.5a6.35,6.35,0,0,0-.6-2.94,4.33,4.33,0,0,0-1.47-1.71,4.73,4.73,0,0,0-1.83-.7,14.2,14.2,0,0,0-2-.14h-2.8v11.53h3a6.78,6.78,0,0,0,2.63-.45,4.52,4.52,0,0,0,1.73-1.25,5.38,5.38,0,0,0,1-1.91A8.25,8.25,0,0,0,812.44,539.34Z" style="fill:#86857e"/><path d="M829.27,561.61a.72.72,0,0,1-.15.45,1,1,0,0,1-.51.33,3.9,3.9,0,0,1-1,.2c-.4,0-.91.07-1.52.07s-1.12,0-1.52-.07a3.9,3.9,0,0,1-1-.2,1,1,0,0,1-.51-.33.72.72,0,0,1-.15-.45V527.07a.8.8,0,0,1,.15-.47,1.07,1.07,0,0,1,.51-.35,4.23,4.23,0,0,1,1-.23,16.54,16.54,0,0,1,3,0,4.23,4.23,0,0,1,1,.23,1.07,1.07,0,0,1,.51.35.8.8,0,0,1,.15.47Z" style="fill:#86857e"/><path d="M853.46,561.68a.73.73,0,0,1-.25.58,1.67,1.67,0,0,1-.79.3,10.12,10.12,0,0,1-1.58.1,10.26,10.26,0,0,1-1.64-.1,1.35,1.35,0,0,1-.72-.3.78.78,0,0,1-.21-.58v-1.86a10.16,10.16,0,0,1-3.13,2.41,8.66,8.66,0,0,1-3.9.87,10.57,10.57,0,0,1-3.26-.48,7.32,7.32,0,0,1-2.56-1.45,6.46,6.46,0,0,1-1.69-2.37,8.47,8.47,0,0,1-.59-3.31,7.76,7.76,0,0,1,.76-3.56,6.36,6.36,0,0,1,2.26-2.5,11,11,0,0,1,3.76-1.45,25.06,25.06,0,0,1,5.21-.48h2.17v-1.41a7.86,7.86,0,0,0-.21-1.93,3.33,3.33,0,0,0-.7-1.38,2.93,2.93,0,0,0-1.3-.82,6.77,6.77,0,0,0-2-.26,9.64,9.64,0,0,0-2.8.37,15.93,15.93,0,0,0-2.18.81c-.63.3-1.16.57-1.59.82a2.22,2.22,0,0,1-1,.36.74.74,0,0,1-.49-.18,1.44,1.44,0,0,1-.35-.53,3.7,3.7,0,0,1-.21-.83,7.59,7.59,0,0,1-.07-1.11,5.53,5.53,0,0,1,.12-1.29,2.05,2.05,0,0,1,.47-.85,5.1,5.1,0,0,1,1.23-.84,14.27,14.27,0,0,1,2-.85,17.38,17.38,0,0,1,2.56-.65,18.3,18.3,0,0,1,7.33.29,7.42,7.42,0,0,1,3,1.66,6.48,6.48,0,0,1,1.75,2.87,14.36,14.36,0,0,1,.55,4.18Zm-6.16-10h-2.4a12,12,0,0,0-2.59.24,4.73,4.73,0,0,0-1.74.71,2.83,2.83,0,0,0-1,1.14,3.59,3.59,0,0,0-.31,1.54,3,3,0,0,0,.88,2.31,3.43,3.43,0,0,0,2.46.84,4.45,4.45,0,0,0,2.43-.71,10.36,10.36,0,0,0,2.26-2.08Z" style="fill:#86857e"/><path d="M871.38,559.3a8,8,0,0,1-.14,1.77,1.88,1.88,0,0,1-.36.86,1.91,1.91,0,0,1-.66.45,6.4,6.4,0,0,1-1,.34,9,9,0,0,1-1.27.22,10.64,10.64,0,0,1-1.38.08,9.37,9.37,0,0,1-3.25-.5A5.38,5.38,0,0,1,861,561a6.74,6.74,0,0,1-1.32-2.62,14.55,14.55,0,0,1-.42-3.72v-12h-2.67c-.31,0-.55-.21-.72-.62a5.93,5.93,0,0,1-.25-2.06,11.64,11.64,0,0,1,.06-1.29,3.41,3.41,0,0,1,.19-.83,1,1,0,0,1,.31-.43.74.74,0,0,1,.44-.13h2.64v-5.23a.86.86,0,0,1,.14-.47,1,1,0,0,1,.5-.35,3.44,3.44,0,0,1,1-.21,12.86,12.86,0,0,1,1.51-.07,13.12,13.12,0,0,1,1.53.07,3.28,3.28,0,0,1,1,.21,1.09,1.09,0,0,1,.5.35.8.8,0,0,1,.15.47v5.23h4.84a.71.71,0,0,1,.43.13.91.91,0,0,1,.31.43,3,3,0,0,1,.19.83,11.64,11.64,0,0,1,.06,1.29,5.93,5.93,0,0,1-.25,2.06c-.16.41-.41.62-.72.62h-4.86v11a5.69,5.69,0,0,0,.57,2.87,2.19,2.19,0,0,0,2,1,4,4,0,0,0,.89-.09,4.67,4.67,0,0,0,.71-.21l.53-.21a1,1,0,0,1,.38-.09.52.52,0,0,1,.29.09.61.61,0,0,1,.21.37,5.37,5.37,0,0,1,.14.75A9.9,9.9,0,0,1,871.38,559.3Z" style="fill:#86857e"/><path d="M893.35,561.68a.7.7,0,0,1-.25.58,1.67,1.67,0,0,1-.79.3,9.93,9.93,0,0,1-1.58.1,10.11,10.11,0,0,1-1.63-.1,1.35,1.35,0,0,1-.72-.3.75.75,0,0,1-.22-.58v-1.86a9.93,9.93,0,0,1-3.13,2.41,8.66,8.66,0,0,1-3.9.87,10.5,10.5,0,0,1-3.25-.48,7.28,7.28,0,0,1-2.57-1.45,6.55,6.55,0,0,1-1.68-2.37,8.47,8.47,0,0,1-.6-3.31,7.76,7.76,0,0,1,.76-3.56,6.39,6.39,0,0,1,2.27-2.5,10.88,10.88,0,0,1,3.75-1.45,25.12,25.12,0,0,1,5.21-.48h2.17v-1.41a7.86,7.86,0,0,0-.21-1.93,3.22,3.22,0,0,0-.7-1.38A2.88,2.88,0,0,0,885,542a6.74,6.74,0,0,0-2-.26,9.66,9.66,0,0,0-2.81.37,15.93,15.93,0,0,0-2.18.81c-.63.3-1.16.57-1.58.82a2.29,2.29,0,0,1-1,.36.72.72,0,0,1-.48-.18,1.33,1.33,0,0,1-.35-.53,3.7,3.7,0,0,1-.21-.83,7.51,7.51,0,0,1-.08-1.11,5,5,0,0,1,.13-1.29,2.05,2.05,0,0,1,.47-.85,4.8,4.8,0,0,1,1.22-.84,14,14,0,0,1,2-.85,17.56,17.56,0,0,1,2.55-.65,18.31,18.31,0,0,1,7.33.29,7.4,7.4,0,0,1,3.06,1.66,6.55,6.55,0,0,1,1.74,2.87,14,14,0,0,1,.55,4.18Zm-6.16-10H884.8a12.11,12.11,0,0,0-2.6.24,4.8,4.8,0,0,0-1.74.71,2.83,2.83,0,0,0-1,1.14,3.75,3.75,0,0,0-.31,1.54,3,3,0,0,0,.89,2.31,3.42,3.42,0,0,0,2.45.84,4.45,4.45,0,0,0,2.43-.71,10.14,10.14,0,0,0,2.26-2.08Z" style="fill:#86857e"/><path d="M911.72,529.25a10.36,10.36,0,0,1-.05,1.23,2.46,2.46,0,0,1-.15.7.81.81,0,0,1-.22.35.44.44,0,0,1-.27.09,1,1,0,0,1-.39-.09,4.78,4.78,0,0,0-.52-.2,7,7,0,0,0-.74-.2,4.81,4.81,0,0,0-1-.09,2.76,2.76,0,0,0-1.16.22,2,2,0,0,0-.81.71,3.64,3.64,0,0,0-.47,1.26,10.26,10.26,0,0,0-.15,1.91v2.15h4.06a.67.67,0,0,1,.41.13,1,1,0,0,1,.32.43,3.46,3.46,0,0,1,.18.83,11.36,11.36,0,0,1,.07,1.29,6.19,6.19,0,0,1-.25,2.06c-.17.41-.41.62-.73.62h-4.06v19a.72.72,0,0,1-.15.45,1,1,0,0,1-.5.33,3.69,3.69,0,0,1-1,.2c-.42,0-.92.07-1.52.07s-1.1,0-1.51-.07a3.89,3.89,0,0,1-1-.2.92.92,0,0,1-.5-.33.77.77,0,0,1-.14-.45v-19h-2.79c-.32,0-.55-.21-.71-.62a6.25,6.25,0,0,1-.24-2.06,11.64,11.64,0,0,1,.06-1.29,4.83,4.83,0,0,1,.18-.83.83.83,0,0,1,.3-.43.71.71,0,0,1,.43-.13h2.77v-2a17.41,17.41,0,0,1,.45-4.19,7.62,7.62,0,0,1,1.41-3,5.88,5.88,0,0,1,2.44-1.8,9.34,9.34,0,0,1,3.51-.6,9.12,9.12,0,0,1,1.84.17,8,8,0,0,1,1.37.36,2.61,2.61,0,0,1,.68.37,1.24,1.24,0,0,1,.28.5,3.39,3.39,0,0,1,.16.84A11.55,11.55,0,0,1,911.72,529.25Z" style="fill:#86857e"/><path d="M935.16,549.66a18.77,18.77,0,0,1-.75,5.46,11.58,11.58,0,0,1-2.27,4.25,10.07,10.07,0,0,1-3.81,2.76,13.64,13.64,0,0,1-5.36,1,13.94,13.94,0,0,1-5.16-.87,9,9,0,0,1-3.64-2.52,10.43,10.43,0,0,1-2.15-4.07,20.05,20.05,0,0,1-.69-5.51,18.45,18.45,0,0,1,.76-5.47,11.48,11.48,0,0,1,2.28-4.26,10.07,10.07,0,0,1,3.8-2.74,13.52,13.52,0,0,1,5.35-1,14.24,14.24,0,0,1,5.18.85,9,9,0,0,1,3.63,2.51,10.47,10.47,0,0,1,2.13,4.07A19.78,19.78,0,0,1,935.16,549.66Zm-6.46.26a17.53,17.53,0,0,0-.26-3.19,7.85,7.85,0,0,0-.88-2.54,4.58,4.58,0,0,0-1.66-1.67,5,5,0,0,0-2.61-.61,5.25,5.25,0,0,0-2.44.54,4.46,4.46,0,0,0-1.72,1.57,7.75,7.75,0,0,0-1,2.5,14.49,14.49,0,0,0-.34,3.32,16.61,16.61,0,0,0,.28,3.19,8.09,8.09,0,0,0,.88,2.54,4.34,4.34,0,0,0,1.66,1.66,5.14,5.14,0,0,0,2.59.59,5.32,5.32,0,0,0,2.47-.53,4.46,4.46,0,0,0,1.72-1.57,7.45,7.45,0,0,0,1-2.48A15.78,15.78,0,0,0,928.7,549.92Z" style="fill:#86857e"/><path d="M953.39,540.36c0,.63,0,1.15,0,1.55a6.56,6.56,0,0,1-.15,1,1.08,1.08,0,0,1-.26.47.64.64,0,0,1-.42.13,1.28,1.28,0,0,1-.44-.09l-.57-.2c-.2-.07-.43-.13-.68-.2a3.49,3.49,0,0,0-.82-.09,2.65,2.65,0,0,0-1,.23,4.35,4.35,0,0,0-1.09.69,9.2,9.2,0,0,0-1.17,1.26c-.4.53-.84,1.17-1.31,1.94v14.61a.77.77,0,0,1-.14.45,1.06,1.06,0,0,1-.52.33,3.9,3.9,0,0,1-1,.2c-.4,0-.9.07-1.52.07s-1.12,0-1.52-.07a3.9,3.9,0,0,1-1-.2,1,1,0,0,1-.51-.33.72.72,0,0,1-.15-.45V538.18a.8.8,0,0,1,.13-.46.93.93,0,0,1,.44-.33,3.75,3.75,0,0,1,.84-.19,9.17,9.17,0,0,1,1.28-.07,9.87,9.87,0,0,1,1.33.07,3.22,3.22,0,0,1,.81.19,1,1,0,0,1,.41.33.88.88,0,0,1,.12.46v2.92a17.63,17.63,0,0,1,1.65-2.17,8.85,8.85,0,0,1,1.47-1.35,4.54,4.54,0,0,1,1.39-.7,5.19,5.19,0,0,1,1.4-.19l.7,0a7.37,7.37,0,0,1,.77.14,4.52,4.52,0,0,1,.7.21,1.47,1.47,0,0,1,.44.24.85.85,0,0,1,.19.29,2.23,2.23,0,0,1,.12.44,6.25,6.25,0,0,1,.07.82Q953.39,539.42,953.39,540.36Z" style="fill:#86857e"/><path d="M991.61,561.61a.72.72,0,0,1-.15.45,1,1,0,0,1-.5.33,3.7,3.7,0,0,1-1,.2c-.4,0-.9.07-1.52.07s-1.14,0-1.54-.07a3.9,3.9,0,0,1-1-.2.92.92,0,0,1-.5-.33.77.77,0,0,1-.14-.45v-13.9a10.25,10.25,0,0,0-.21-2.15,5.25,5.25,0,0,0-.65-1.67,3.12,3.12,0,0,0-1.1-1.07,3,3,0,0,0-1.58-.38,3.65,3.65,0,0,0-2.27.91,16.29,16.29,0,0,0-2.49,2.68v15.58a.72.72,0,0,1-.15.45,1,1,0,0,1-.51.33,3.9,3.9,0,0,1-1,.2c-.4,0-.9.07-1.5.07s-1.12,0-1.52-.07a3.9,3.9,0,0,1-1-.2,1,1,0,0,1-.51-.33.72.72,0,0,1-.15-.45v-13.9a10.25,10.25,0,0,0-.21-2.15,5.24,5.24,0,0,0-.64-1.67,3,3,0,0,0-1.09-1.07,3.11,3.11,0,0,0-1.58-.38,3.68,3.68,0,0,0-2.29.91,15.46,15.46,0,0,0-2.47,2.68v15.58a.72.72,0,0,1-.15.45,1,1,0,0,1-.51.33,3.9,3.9,0,0,1-1,.2c-.4,0-.9.07-1.52.07s-1.12,0-1.52-.07a3.9,3.9,0,0,1-1-.2,1,1,0,0,1-.51-.33.72.72,0,0,1-.15-.45V538.18a.88.88,0,0,1,.12-.46,1,1,0,0,1,.45-.33,3.75,3.75,0,0,1,.84-.19,9.17,9.17,0,0,1,1.28-.07,9.61,9.61,0,0,1,1.32.07,3.21,3.21,0,0,1,.82.19,1.07,1.07,0,0,1,.41.33.88.88,0,0,1,.12.46v2.71a14.91,14.91,0,0,1,3.68-3.15,7.57,7.57,0,0,1,3.83-1,9.31,9.31,0,0,1,2.46.3,6.85,6.85,0,0,1,2,.86,6.2,6.2,0,0,1,1.48,1.36,7.53,7.53,0,0,1,1,1.76,18.88,18.88,0,0,1,2-2,11.62,11.62,0,0,1,1.89-1.32,8.91,8.91,0,0,1,1.87-.77,7.69,7.69,0,0,1,1.91-.24,8.12,8.12,0,0,1,3.74.78,6.8,6.8,0,0,1,2.46,2.14,9,9,0,0,1,1.33,3.17,18.14,18.14,0,0,1,.4,3.83Z" style="fill:#86857e"/><path d="M1015.69,561.68a.7.7,0,0,1-.25.58,1.59,1.59,0,0,1-.78.3,10.12,10.12,0,0,1-1.58.1,10.26,10.26,0,0,1-1.64-.1,1.35,1.35,0,0,1-.72-.3.78.78,0,0,1-.21-.58v-1.86a10.16,10.16,0,0,1-3.13,2.41,8.66,8.66,0,0,1-3.9.87,10.57,10.57,0,0,1-3.26-.48,7.24,7.24,0,0,1-2.56-1.45A6.46,6.46,0,0,1,996,558.8a8.47,8.47,0,0,1-.6-3.31,7.76,7.76,0,0,1,.77-3.56,6.36,6.36,0,0,1,2.26-2.5,11,11,0,0,1,3.76-1.45,25.06,25.06,0,0,1,5.21-.48h2.17v-1.41a7.83,7.83,0,0,0-.22-1.93,3.21,3.21,0,0,0-.69-1.38,2.93,2.93,0,0,0-1.3-.82,6.77,6.77,0,0,0-2-.26,9.64,9.64,0,0,0-2.8.37,15.45,15.45,0,0,0-2.18.81c-.64.3-1.16.57-1.59.82a2.26,2.26,0,0,1-1,.36.72.72,0,0,1-.49-.18,1.33,1.33,0,0,1-.35-.53,3.7,3.7,0,0,1-.21-.83,7.59,7.59,0,0,1-.07-1.11,5.53,5.53,0,0,1,.12-1.29,2.05,2.05,0,0,1,.47-.85,4.9,4.9,0,0,1,1.23-.84,14.27,14.27,0,0,1,2-.85,17.38,17.38,0,0,1,2.56-.65,18.3,18.3,0,0,1,7.33.29,7.42,7.42,0,0,1,3,1.66,6.37,6.37,0,0,1,1.74,2.87,14,14,0,0,1,.55,4.18Zm-6.15-10h-2.4a12,12,0,0,0-2.59.24,4.78,4.78,0,0,0-1.75.71,2.81,2.81,0,0,0-1,1.14,3.59,3.59,0,0,0-.31,1.54,3,3,0,0,0,.88,2.31,3.43,3.43,0,0,0,2.46.84,4.45,4.45,0,0,0,2.43-.71,10.36,10.36,0,0,0,2.26-2.08Z" style="fill:#86857e"/><path d="M1036.59,555a8.32,8.32,0,0,1-.71,3.52,7.05,7.05,0,0,1-2,2.54,8.78,8.78,0,0,1-3.07,1.54,13.82,13.82,0,0,1-3.84.51,13.1,13.1,0,0,1-2.38-.2,14.07,14.07,0,0,1-2-.49,10.2,10.2,0,0,1-1.5-.62,4.16,4.16,0,0,1-.87-.59,1.91,1.91,0,0,1-.42-.87,7.52,7.52,0,0,1-.15-1.74,10.36,10.36,0,0,1,0-1.23,2.9,2.9,0,0,1,.15-.73.67.67,0,0,1,.25-.37.7.7,0,0,1,.37-.09,1.82,1.82,0,0,1,.81.33c.36.22.8.46,1.34.72a14.52,14.52,0,0,0,1.85.74,8.11,8.11,0,0,0,2.41.34,5.38,5.38,0,0,0,1.51-.19,3.51,3.51,0,0,0,1.14-.52,2.22,2.22,0,0,0,.74-.87,2.87,2.87,0,0,0,.25-1.21,2.12,2.12,0,0,0-.46-1.35,4.17,4.17,0,0,0-1.22-1,13.81,13.81,0,0,0-1.72-.79c-.64-.25-1.3-.52-2-.82a15.32,15.32,0,0,1-2-1,7.32,7.32,0,0,1-1.72-1.42,6.47,6.47,0,0,1-1.23-2,8,8,0,0,1-.46-2.84,7.44,7.44,0,0,1,.63-3.08,6.53,6.53,0,0,1,1.79-2.4,8.1,8.1,0,0,1,2.86-1.55,12,12,0,0,1,3.77-.55,13.6,13.6,0,0,1,2,.15,14.76,14.76,0,0,1,1.78.4,7.71,7.71,0,0,1,1.34.51,4.26,4.26,0,0,1,.79.47,1.23,1.23,0,0,1,.34.4,2.17,2.17,0,0,1,.15.47c0,.18.06.41.08.68a9.62,9.62,0,0,1,0,1c0,.47,0,.86,0,1.16a3,3,0,0,1-.12.71.64.64,0,0,1-.24.35.68.68,0,0,1-.35.09,1.69,1.69,0,0,1-.7-.27,10.74,10.74,0,0,0-1.18-.59,12.43,12.43,0,0,0-1.65-.59,7.28,7.28,0,0,0-2.13-.28,5.38,5.38,0,0,0-1.47.18,2.89,2.89,0,0,0-1,.53,2.11,2.11,0,0,0-.6.8,2.49,2.49,0,0,0-.2,1,2.05,2.05,0,0,0,.47,1.37,4.47,4.47,0,0,0,1.25,1,14.63,14.63,0,0,0,1.76.79c.66.24,1.32.51,2,.8a18.74,18.74,0,0,1,2,1,7.78,7.78,0,0,1,1.76,1.42,6.56,6.56,0,0,1,1.24,2A7.26,7.26,0,0,1,1036.59,555Z" style="fill:#86857e"/><path d="M817.93,612.9a.94.94,0,0,1-.13.49.91.91,0,0,1-.42.33,3.28,3.28,0,0,1-.81.18c-.34,0-.76.05-1.26.05s-1,0-1.3-.05a3.51,3.51,0,0,1-.81-.18,1,1,0,0,1-.45-.33.86.86,0,0,1-.14-.49v-2.6a14.18,14.18,0,0,1-3.6,3,8.2,8.2,0,0,1-4.17,1.08,8,8,0,0,1-7.17-3.84,12.42,12.42,0,0,1-1.61-4.1,24,24,0,0,1-.5-5,22.44,22.44,0,0,1,.64-5.62,13,13,0,0,1,1.85-4.26,8.39,8.39,0,0,1,3.05-2.7,9,9,0,0,1,4.19-.95,7.24,7.24,0,0,1,3.39.8,12.23,12.23,0,0,1,3,2.35V578.45a.84.84,0,0,1,.14-.47,1.06,1.06,0,0,1,.5-.36,4.29,4.29,0,0,1,1-.22,14.48,14.48,0,0,1,3,0,4.18,4.18,0,0,1,.95.22,1.18,1.18,0,0,1,.5.36.78.78,0,0,1,.15.47Zm-6.24-15.65a14,14,0,0,0-2.58-2.73,4.18,4.18,0,0,0-2.58-.95,3.5,3.5,0,0,0-2.11.65,4.65,4.65,0,0,0-1.42,1.72,9.66,9.66,0,0,0-.79,2.4,13.56,13.56,0,0,0-.27,2.72,17.9,17.9,0,0,0,.23,2.86,9.25,9.25,0,0,0,.73,2.48,4.72,4.72,0,0,0,1.36,1.75,3.4,3.4,0,0,0,2.15.66,4.15,4.15,0,0,0,1.26-.2,4.64,4.64,0,0,0,1.24-.65,7.91,7.91,0,0,0,1.31-1.16c.45-.49.94-1.08,1.47-1.78Z" style="fill:#86857e"/><path d="M843.76,600.51a2.63,2.63,0,0,1-.51,1.78,1.8,1.8,0,0,1-1.41.58H828.3a10,10,0,0,0,.34,2.72,5.23,5.23,0,0,0,1.07,2.07,4.67,4.67,0,0,0,1.89,1.3,7.68,7.68,0,0,0,2.78.45,14.53,14.53,0,0,0,2.89-.25,19.79,19.79,0,0,0,2.16-.55c.61-.2,1.11-.39,1.51-.55a2.6,2.6,0,0,1,1-.25.68.68,0,0,1,.37.09.63.63,0,0,1,.25.33,2,2,0,0,1,.14.67c0,.29,0,.65,0,1.09s0,.71,0,1a6.11,6.11,0,0,1-.07.7,1.51,1.51,0,0,1-.15.48,1.83,1.83,0,0,1-.26.38,2.92,2.92,0,0,1-.89.5,13,13,0,0,1-1.84.62,22.76,22.76,0,0,1-2.57.52,20.21,20.21,0,0,1-3.09.23,15.49,15.49,0,0,1-5.2-.79,9.13,9.13,0,0,1-3.73-2.39,10.14,10.14,0,0,1-2.23-4,20,20,0,0,1-.73-5.73,18.93,18.93,0,0,1,.77-5.63,12,12,0,0,1,2.24-4.26,9.71,9.71,0,0,1,3.58-2.66,13.11,13.11,0,0,1,9.52,0,8.67,8.67,0,0,1,3.26,2.4,9.83,9.83,0,0,1,1.87,3.64,16.57,16.57,0,0,1,.6,4.57Zm-6.09-1.89a7.06,7.06,0,0,0-1.06-4.38,4,4,0,0,0-3.5-1.58,4.2,4.2,0,0,0-3.55,1.74,6.13,6.13,0,0,0-.9,1.89,9.62,9.62,0,0,0-.36,2.33Z" style="fill:#86857e"/><path d="M885.22,611.22a9.37,9.37,0,0,1,.37,1.5.93.93,0,0,1-.2.83,1.61,1.61,0,0,1-1,.34q-.69.06-1.92.06c-.85,0-1.51,0-2,0a4.79,4.79,0,0,1-1.08-.15,1,1,0,0,1-.53-.33,2,2,0,0,1-.25-.55l-2.17-6.83H864.38l-2,6.64a2,2,0,0,1-.26.62,1.07,1.07,0,0,1-.52.39,3.82,3.82,0,0,1-1,.2c-.44,0-1,.05-1.73.05a14.08,14.08,0,0,1-1.79-.08,1.33,1.33,0,0,1-.9-.38,1,1,0,0,1-.18-.85,8.88,8.88,0,0,1,.38-1.47l10-30.15a2.3,2.3,0,0,1,.35-.72,1.25,1.25,0,0,1,.63-.42,4.77,4.77,0,0,1,1.21-.18c.51,0,1.2,0,2,0s1.77,0,2.35,0a6.05,6.05,0,0,1,1.36.18,1.3,1.3,0,0,1,.69.43,2.53,2.53,0,0,1,.37.79ZM870.41,586.3h0l-4.56,14.44H875Z" style="fill:#86857e"/><path d="M905.17,609.17c0,.46,0,.84,0,1.14s-.06.57-.1.78a2.24,2.24,0,0,1-.15.51,2,2,0,0,1-.39.5,5.64,5.64,0,0,1-1,.74,10.89,10.89,0,0,1-1.64.77,12.8,12.8,0,0,1-2,.55,11.71,11.71,0,0,1-2.23.21,11.58,11.58,0,0,1-4.55-.84,8.63,8.63,0,0,1-3.33-2.48,10.94,10.94,0,0,1-2-4,22,22,0,0,1,.15-11.49,11.6,11.6,0,0,1,2.33-4.24,9.16,9.16,0,0,1,3.54-2.5,12.08,12.08,0,0,1,4.49-.81,10.56,10.56,0,0,1,1.95.18,10.77,10.77,0,0,1,1.8.5,9.83,9.83,0,0,1,1.49.71,4.89,4.89,0,0,1,.94.68,2.86,2.86,0,0,1,.38.49,1.52,1.52,0,0,1,.18.51c0,.21.07.47.1.77s0,.68,0,1.12a6.5,6.5,0,0,1-.25,2.14c-.17.41-.38.62-.65.62a1.49,1.49,0,0,1-.9-.37c-.31-.24-.69-.52-1.12-.81a8.29,8.29,0,0,0-1.55-.82,5.74,5.74,0,0,0-2.14-.36,4.2,4.2,0,0,0-3.74,2,10.71,10.71,0,0,0-1.3,5.81,15.1,15.1,0,0,0,.33,3.34,7,7,0,0,0,1,2.41,4,4,0,0,0,1.59,1.46,4.82,4.82,0,0,0,2.23.49,5.63,5.63,0,0,0,2.24-.41,8.67,8.67,0,0,0,1.63-.91q.69-.49,1.17-.9a1.38,1.38,0,0,1,.8-.41.57.57,0,0,1,.37.13,1,1,0,0,1,.24.49,6.89,6.89,0,0,1,.14.9C905.15,608.12,905.17,608.6,905.17,609.17Z" style="fill:#86857e"/><path d="M925.51,609.17c0,.46,0,.84,0,1.14a4.82,4.82,0,0,1-.1.78,2.24,2.24,0,0,1-.15.51,1.67,1.67,0,0,1-.38.5,5.64,5.64,0,0,1-1,.74,11,11,0,0,1-1.65.77,12.51,12.51,0,0,1-2,.55,12.47,12.47,0,0,1-6.78-.63,8.63,8.63,0,0,1-3.33-2.48,11.1,11.1,0,0,1-2-4,22.29,22.29,0,0,1,.15-11.49,11.75,11.75,0,0,1,2.33-4.24,9.31,9.31,0,0,1,3.54-2.5,12.08,12.08,0,0,1,4.49-.81,10.67,10.67,0,0,1,2,.18,10.4,10.4,0,0,1,1.79.5,9.51,9.51,0,0,1,1.5.71,4.46,4.46,0,0,1,.93.68,2.55,2.55,0,0,1,.39.49,1.79,1.79,0,0,1,.17.51,6.36,6.36,0,0,1,.1.77c0,.31,0,.68,0,1.12a6.24,6.24,0,0,1-.25,2.14c-.16.41-.38.62-.65.62a1.44,1.44,0,0,1-.89-.37c-.32-.24-.69-.52-1.13-.81a8.18,8.18,0,0,0-1.54-.82,5.76,5.76,0,0,0-2.15-.36,4.21,4.21,0,0,0-3.74,2,10.71,10.71,0,0,0-1.29,5.81,15.77,15.77,0,0,0,.32,3.34,7.4,7.4,0,0,0,1,2.41,4.13,4.13,0,0,0,1.6,1.46,4.79,4.79,0,0,0,2.23.49,5.58,5.58,0,0,0,2.23-.41,8.36,8.36,0,0,0,1.63-.91c.47-.33.86-.63,1.18-.9a1.36,1.36,0,0,1,.79-.41.6.6,0,0,1,.38.13,1,1,0,0,1,.23.49,5.52,5.52,0,0,1,.14.9C925.49,608.12,925.51,608.6,925.51,609.17Z" style="fill:#86857e"/><path d="M935.78,581.55a3.78,3.78,0,0,1-.77,2.75,5.79,5.79,0,0,1-5.72,0,3.71,3.71,0,0,1-.74-2.65,4,4,0,0,1,.76-2.77,5.75,5.75,0,0,1,5.73,0A3.74,3.74,0,0,1,935.78,581.55Zm-.47,31.35a.73.73,0,0,1-.15.46,1.13,1.13,0,0,1-.51.33,4.42,4.42,0,0,1-1,.2c-.4,0-.91.06-1.52.06s-1.12,0-1.52-.06a4.42,4.42,0,0,1-1-.2,1.13,1.13,0,0,1-.51-.33.73.73,0,0,1-.15-.46V589.53a.75.75,0,0,1,.15-.46,1.22,1.22,0,0,1,.51-.34,3.8,3.8,0,0,1,1-.22,14.48,14.48,0,0,1,3,0,3.8,3.8,0,0,1,1,.22,1.22,1.22,0,0,1,.51.34.75.75,0,0,1,.15.46Z" style="fill:#86857e"/><path d="M963,601a18.67,18.67,0,0,1-.75,5.46,11.77,11.77,0,0,1-2.27,4.26,10.15,10.15,0,0,1-3.81,2.76,13.84,13.84,0,0,1-5.37,1,14,14,0,0,1-5.16-.87A9.38,9.38,0,0,1,942,611a10.48,10.48,0,0,1-2.14-4.07,19.71,19.71,0,0,1-.7-5.51A18.57,18.57,0,0,1,940,596a11.81,11.81,0,0,1,2.28-4.25,10.13,10.13,0,0,1,3.81-2.75,13.68,13.68,0,0,1,5.34-1,14.47,14.47,0,0,1,5.19.85,9.15,9.15,0,0,1,3.63,2.51,10.74,10.74,0,0,1,2.13,4.07A20.21,20.21,0,0,1,963,601Zm-6.46.27a18.47,18.47,0,0,0-.26-3.19,7.77,7.77,0,0,0-.89-2.54,4.46,4.46,0,0,0-1.66-1.68,5.1,5.1,0,0,0-2.6-.6,5.23,5.23,0,0,0-2.44.54,4.32,4.32,0,0,0-1.72,1.57,7.57,7.57,0,0,0-1,2.5,14.43,14.43,0,0,0-.34,3.32,17.57,17.57,0,0,0,.27,3.19,8.29,8.29,0,0,0,.89,2.53,4.23,4.23,0,0,0,1.66,1.67,5.22,5.22,0,0,0,2.59.59,5.32,5.32,0,0,0,2.47-.54,4.59,4.59,0,0,0,1.72-1.56,7.24,7.24,0,0,0,1-2.48A15.11,15.11,0,0,0,956.58,601.22ZM952.34,578a2.07,2.07,0,0,1,.42-.5,1.88,1.88,0,0,1,.63-.33,4.18,4.18,0,0,1,.94-.17c.39,0,.85-.05,1.4-.05a12.22,12.22,0,0,1,1.81.1,2.45,2.45,0,0,1,1,.3.52.52,0,0,1,.26.46,1.08,1.08,0,0,1-.25.55l-4.84,6.1a2.39,2.39,0,0,1-.4.43,1.54,1.54,0,0,1-.51.28,3.6,3.6,0,0,1-.78.15,10.22,10.22,0,0,1-1.2.05,10.09,10.09,0,0,1-1.38-.07,1.59,1.59,0,0,1-.71-.25.47.47,0,0,1-.17-.44,1.84,1.84,0,0,1,.26-.6Z" style="fill:#86857e"/><path d="M988.22,612.9a.73.73,0,0,1-.15.46,1.15,1.15,0,0,1-.5.33,4.17,4.17,0,0,1-1,.2c-.41,0-.91.06-1.51.06s-1.13,0-1.53-.06a4.17,4.17,0,0,1-1-.2,1.15,1.15,0,0,1-.5-.33.73.73,0,0,1-.15-.46V599.54a11.66,11.66,0,0,0-.24-2.68,5.41,5.41,0,0,0-.68-1.67,3.24,3.24,0,0,0-1.16-1.08,3.53,3.53,0,0,0-1.66-.38,4.06,4.06,0,0,0-2.42.92,13.54,13.54,0,0,0-2.54,2.68V612.9a.73.73,0,0,1-.15.46,1.13,1.13,0,0,1-.51.33,4.42,4.42,0,0,1-1,.2c-.4,0-.91.06-1.52.06s-1.12,0-1.52-.06a4.42,4.42,0,0,1-1-.2,1.17,1.17,0,0,1-.52-.33.78.78,0,0,1-.14-.46V589.48a.85.85,0,0,1,.12-.46.91.91,0,0,1,.45-.33,3.48,3.48,0,0,1,.83-.2,11.39,11.39,0,0,1,1.29-.06,12,12,0,0,1,1.32.06,3,3,0,0,1,.81.2.93.93,0,0,1,.41.33.86.86,0,0,1,.13.46v2.7a14.28,14.28,0,0,1,3.75-3.15,8.13,8.13,0,0,1,4-1,8.35,8.35,0,0,1,3.83.79,6.74,6.74,0,0,1,2.52,2.14,8.89,8.89,0,0,1,1.38,3.16,19,19,0,0,1,.43,4.36Z" style="fill:#86857e"/><path d="M819.22,652.14a23.17,23.17,0,0,1-.63,5.64,13.21,13.21,0,0,1-1.86,4.26,8.37,8.37,0,0,1-3,2.71,8.93,8.93,0,0,1-4.17.94,7.59,7.59,0,0,1-1.78-.19,6.72,6.72,0,0,1-1.57-.61,9,9,0,0,1-1.51-1,17.49,17.49,0,0,1-1.54-1.41v11a.81.81,0,0,1-.15.48,1.13,1.13,0,0,1-.52.35,3.81,3.81,0,0,1-1,.22,14.58,14.58,0,0,1-3,0,3.8,3.8,0,0,1-1-.22A1.14,1.14,0,0,1,797,674a.81.81,0,0,1-.15-.48V640.77a.82.82,0,0,1,.13-.46.87.87,0,0,1,.43-.32,3.06,3.06,0,0,1,.83-.2,11,11,0,0,1,1.28-.07,10.79,10.79,0,0,1,1.26.07,3,3,0,0,1,.82.2.86.86,0,0,1,.44.32.9.9,0,0,1,.12.46v2.76a23.26,23.26,0,0,1,1.91-1.85,11.63,11.63,0,0,1,1.91-1.34,8,8,0,0,1,2-.8,9.09,9.09,0,0,1,2.2-.26,7.71,7.71,0,0,1,7,3.78,12.84,12.84,0,0,1,1.58,4.1A24,24,0,0,1,819.22,652.14Zm-6.53.48a19.13,19.13,0,0,0-.21-2.88,9.14,9.14,0,0,0-.72-2.45,4.79,4.79,0,0,0-1.35-1.72,3.31,3.31,0,0,0-2.08-.65,4.07,4.07,0,0,0-1.24.2,4.73,4.73,0,0,0-1.24.64,9,9,0,0,0-1.31,1.16,15,15,0,0,0-1.42,1.76v7.72a15.5,15.5,0,0,0,2.51,2.72,3.94,3.94,0,0,0,2.5,1,3.31,3.31,0,0,0,2.08-.65,5.12,5.12,0,0,0,1.41-1.72,9.41,9.41,0,0,0,.81-2.4A14.4,14.4,0,0,0,812.69,652.62Z" style="fill:#86857e"/><path d="M842.16,664.28a.7.7,0,0,1-.25.57,1.67,1.67,0,0,1-.78.31,14.44,14.44,0,0,1-3.22,0,1.34,1.34,0,0,1-.72-.31.74.74,0,0,1-.22-.57v-1.87a10,10,0,0,1-3.13,2.42,8.65,8.65,0,0,1-3.9.86,10.5,10.5,0,0,1-3.25-.48,7.21,7.21,0,0,1-2.57-1.45,6.47,6.47,0,0,1-1.68-2.37,8.47,8.47,0,0,1-.6-3.31,7.78,7.78,0,0,1,.76-3.56,6.3,6.3,0,0,1,2.27-2.49,10.85,10.85,0,0,1,3.75-1.46,25.24,25.24,0,0,1,5.21-.47H836v-1.42a7.86,7.86,0,0,0-.21-1.93,3.22,3.22,0,0,0-.7-1.38,2.9,2.9,0,0,0-1.29-.82,6.81,6.81,0,0,0-2-.26,10.07,10.07,0,0,0-2.81.37,15.88,15.88,0,0,0-2.18.82,17.33,17.33,0,0,0-1.58.81,2.29,2.29,0,0,1-1,.37.73.73,0,0,1-.48-.19,1.28,1.28,0,0,1-.35-.52,4,4,0,0,1-.21-.84,7.51,7.51,0,0,1-.08-1.11,4.83,4.83,0,0,1,.13-1.28,2,2,0,0,1,.47-.86,4.8,4.8,0,0,1,1.22-.84,14.43,14.43,0,0,1,2-.85,17.59,17.59,0,0,1,2.55-.64,15.85,15.85,0,0,1,2.86-.25,16.18,16.18,0,0,1,4.47.54,7.39,7.39,0,0,1,3.06,1.65,6.44,6.44,0,0,1,1.74,2.88,13.91,13.91,0,0,1,.55,4.17Zm-6.16-10h-2.39a12,12,0,0,0-2.59.23,5,5,0,0,0-1.75.71,2.86,2.86,0,0,0-1,1.14,3.59,3.59,0,0,0-.32,1.54,3,3,0,0,0,.89,2.31,3.43,3.43,0,0,0,2.46.84,4.47,4.47,0,0,0,2.43-.71,10,10,0,0,0,2.25-2.07Z" style="fill:#86857e"/><path d="M861.68,643c0,.63,0,1.15,0,1.55a4.49,4.49,0,0,1-.15,1,.87.87,0,0,1-.26.47.61.61,0,0,1-.41.13,1.38,1.38,0,0,1-.45-.09l-.56-.2c-.21-.07-.44-.13-.69-.19a3.43,3.43,0,0,0-.82-.09,2.56,2.56,0,0,0-1,.22,4.46,4.46,0,0,0-1.09.69,8.61,8.61,0,0,0-1.17,1.26,19.84,19.84,0,0,0-1.31,2v14.6a.75.75,0,0,1-.15.46,1.13,1.13,0,0,1-.51.33,4.49,4.49,0,0,1-1,.19c-.4,0-.91.07-1.52.07s-1.12,0-1.52-.07a4.49,4.49,0,0,1-1-.19,1.13,1.13,0,0,1-.51-.33.75.75,0,0,1-.15-.46V640.77a.9.9,0,0,1,.12-.46A.85.85,0,0,1,848,640a3.14,3.14,0,0,1,.84-.2,10.9,10.9,0,0,1,1.28-.07,11.66,11.66,0,0,1,1.32.07,2.64,2.64,0,0,1,.81.2.86.86,0,0,1,.41.32.91.91,0,0,1,.13.46v2.92a18.72,18.72,0,0,1,1.64-2.17,9.72,9.72,0,0,1,1.47-1.35,4.55,4.55,0,0,1,1.4-.69,4.77,4.77,0,0,1,1.39-.2,6.91,6.91,0,0,1,1.48.17,4.38,4.38,0,0,1,.69.21,1.34,1.34,0,0,1,.44.25.72.72,0,0,1,.2.29,2.19,2.19,0,0,1,.11.43,5.91,5.91,0,0,1,.08.83C861.67,641.82,861.68,642.32,861.68,643Z" style="fill:#86857e"/><path d="M882.35,664.28a.7.7,0,0,1-.25.57,1.58,1.58,0,0,1-.78.31,10.37,10.37,0,0,1-1.58.09,10.56,10.56,0,0,1-1.64-.09,1.34,1.34,0,0,1-.72-.31.77.77,0,0,1-.21-.57v-1.87a10.19,10.19,0,0,1-3.13,2.42,8.65,8.65,0,0,1-3.9.86,10.57,10.57,0,0,1-3.26-.48,7.21,7.21,0,0,1-2.57-1.45,6.47,6.47,0,0,1-1.68-2.37,8.47,8.47,0,0,1-.6-3.31,7.92,7.92,0,0,1,.76-3.56,6.37,6.37,0,0,1,2.27-2.49,10.82,10.82,0,0,1,3.76-1.46,25.07,25.07,0,0,1,5.2-.47h2.17v-1.42a7.86,7.86,0,0,0-.21-1.93,3.33,3.33,0,0,0-.69-1.38,2.93,2.93,0,0,0-1.3-.82,6.77,6.77,0,0,0-2-.26,9.94,9.94,0,0,0-2.8.37,16,16,0,0,0-2.19.82c-.63.29-1.15.56-1.58.81a2.3,2.3,0,0,1-1,.37.73.73,0,0,1-.49-.19,1.28,1.28,0,0,1-.35-.52,4,4,0,0,1-.21-.84,7.51,7.51,0,0,1-.08-1.11,5.3,5.3,0,0,1,.13-1.28,2,2,0,0,1,.47-.86,4.9,4.9,0,0,1,1.23-.84,14.27,14.27,0,0,1,2-.85,17.59,17.59,0,0,1,2.55-.64,15.85,15.85,0,0,1,2.86-.25,16.2,16.2,0,0,1,4.48.54,7.41,7.41,0,0,1,3,1.65,6.35,6.35,0,0,1,1.74,2.88,13.91,13.91,0,0,1,.55,4.17Zm-6.16-10H873.8a12.08,12.08,0,0,0-2.59.23,5,5,0,0,0-1.75.71,2.94,2.94,0,0,0-1,1.14,3.59,3.59,0,0,0-.31,1.54,3,3,0,0,0,.88,2.31,3.43,3.43,0,0,0,2.46.84,4.45,4.45,0,0,0,2.43-.71,10,10,0,0,0,2.25-2.07Z" style="fill:#86857e"/><path d="M904.39,664.2a.75.75,0,0,1-.15.46,1.13,1.13,0,0,1-.51.33,4.49,4.49,0,0,1-1,.19c-.4,0-.9.07-1.52.07s-1.12,0-1.52-.07a4.49,4.49,0,0,1-1-.19,1.13,1.13,0,0,1-.51-.33.75.75,0,0,1-.15-.46V629.67a.81.81,0,0,1,.15-.48,1.14,1.14,0,0,1,.51-.35,3.8,3.8,0,0,1,1-.22,14.48,14.48,0,0,1,3,0,3.8,3.8,0,0,1,1,.22,1.14,1.14,0,0,1,.51.35.81.81,0,0,1,.15.48Z" style="fill:#86857e"/><path d="M928.58,664.28a.7.7,0,0,1-.25.57,1.67,1.67,0,0,1-.79.31,10.2,10.2,0,0,1-1.58.09,10.41,10.41,0,0,1-1.63-.09,1.34,1.34,0,0,1-.72-.31.74.74,0,0,1-.22-.57v-1.87a10,10,0,0,1-3.13,2.42,8.65,8.65,0,0,1-3.9.86,10.5,10.5,0,0,1-3.25-.48,7.13,7.13,0,0,1-2.57-1.45,6.47,6.47,0,0,1-1.68-2.37,8.47,8.47,0,0,1-.6-3.31,7.78,7.78,0,0,1,.76-3.56,6.3,6.3,0,0,1,2.27-2.49,10.69,10.69,0,0,1,3.75-1.46,25.17,25.17,0,0,1,5.21-.47h2.17v-1.42a7.86,7.86,0,0,0-.21-1.93,3.34,3.34,0,0,0-.7-1.38,2.88,2.88,0,0,0-1.3-.82,6.74,6.74,0,0,0-2-.26,10,10,0,0,0-2.81.37,15.88,15.88,0,0,0-2.18.82,17.33,17.33,0,0,0-1.58.81,2.33,2.33,0,0,1-1,.37.73.73,0,0,1-.48-.19,1.28,1.28,0,0,1-.35-.52,4,4,0,0,1-.21-.84,7.51,7.51,0,0,1-.08-1.11,4.83,4.83,0,0,1,.13-1.28,2,2,0,0,1,.47-.86,4.8,4.8,0,0,1,1.22-.84,14,14,0,0,1,2.05-.85,17.59,17.59,0,0,1,2.55-.64,15.69,15.69,0,0,1,2.86-.25,16.18,16.18,0,0,1,4.47.54,7.39,7.39,0,0,1,3.06,1.65,6.53,6.53,0,0,1,1.74,2.88,13.91,13.91,0,0,1,.55,4.17Zm-6.16-10H920a12.18,12.18,0,0,0-2.6.23,5,5,0,0,0-1.74.71,3,3,0,0,0-1,1.14,3.75,3.75,0,0,0-.31,1.54,3,3,0,0,0,.89,2.31,3.42,3.42,0,0,0,2.45.84,4.45,4.45,0,0,0,2.43-.71,10.07,10.07,0,0,0,2.26-2.07Z" style="fill:#86857e"/><path d="M803.79,715.44a.72.72,0,0,1-.16.47,1.18,1.18,0,0,1-.54.35,5.46,5.46,0,0,1-1,.2,11.6,11.6,0,0,1-1.59.08,11.73,11.73,0,0,1-1.58-.08,5.25,5.25,0,0,1-1-.2,1.18,1.18,0,0,1-.54-.35.72.72,0,0,1-.16-.47V683.35a.74.74,0,0,1,.16-.47,1.16,1.16,0,0,1,.55-.34,4.76,4.76,0,0,1,1-.21,15.64,15.64,0,0,1,3.16,0,4.65,4.65,0,0,1,1,.21,1.17,1.17,0,0,1,.54.34.74.74,0,0,1,.16.47Z" style="fill:#86857e"/><path d="M830.67,715.49a.73.73,0,0,1-.15.46,1.15,1.15,0,0,1-.5.33,3.9,3.9,0,0,1-1,.2c-.41,0-.91.06-1.51.06s-1.13,0-1.53-.06a3.7,3.7,0,0,1-1-.2,1.09,1.09,0,0,1-.5-.33.73.73,0,0,1-.15-.46V702.13a11.72,11.72,0,0,0-.24-2.68,5.52,5.52,0,0,0-.69-1.67,3,3,0,0,0-1.15-1.07,3.42,3.42,0,0,0-1.66-.39,4,4,0,0,0-2.42.92,13.53,13.53,0,0,0-2.54,2.68v15.57a.73.73,0,0,1-.15.46,1.13,1.13,0,0,1-.51.33,4,4,0,0,1-1,.2q-.6.06-1.53.06c-.61,0-1.12,0-1.52-.06a4.11,4.11,0,0,1-1-.2,1.13,1.13,0,0,1-.51-.33.73.73,0,0,1-.15-.46V692.07a.8.8,0,0,1,.13-.46.91.91,0,0,1,.45-.33,3.53,3.53,0,0,1,.83-.19,9.23,9.23,0,0,1,1.29-.07,9.71,9.71,0,0,1,1.32.07,3,3,0,0,1,.81.19.93.93,0,0,1,.41.33.88.88,0,0,1,.12.46v2.71a14.17,14.17,0,0,1,3.76-3.16,8.11,8.11,0,0,1,4-1,8.51,8.51,0,0,1,3.83.79,6.84,6.84,0,0,1,2.52,2.14,8.86,8.86,0,0,1,1.38,3.17,19.43,19.43,0,0,1,.43,4.35Z" style="fill:#86857e"/><path d="M852.63,711.77c0,.45,0,.83,0,1.14a4.84,4.84,0,0,1-.1.77,3,3,0,0,1-.14.51,2,2,0,0,1-.39.5,5.64,5.64,0,0,1-1,.74,10.11,10.11,0,0,1-1.65.77,12.23,12.23,0,0,1-2,.55,12.47,12.47,0,0,1-6.78-.63,8.53,8.53,0,0,1-3.33-2.48,11.26,11.26,0,0,1-2-4,22.29,22.29,0,0,1,.15-11.49,11.9,11.9,0,0,1,2.33-4.24,9.42,9.42,0,0,1,3.54-2.5,12.11,12.11,0,0,1,4.49-.81,10.59,10.59,0,0,1,2,.18,11.38,11.38,0,0,1,1.79.5,9.51,9.51,0,0,1,1.5.71,4.46,4.46,0,0,1,.93.68,2.55,2.55,0,0,1,.39.49,1.77,1.77,0,0,1,.18.51,6.51,6.51,0,0,1,.09.78c0,.3,0,.68,0,1.11a6.24,6.24,0,0,1-.25,2.14c-.16.41-.38.62-.65.62a1.44,1.44,0,0,1-.89-.37c-.32-.24-.69-.51-1.12-.81a8.61,8.61,0,0,0-1.55-.82,5.74,5.74,0,0,0-2.14-.36,4.2,4.2,0,0,0-3.74,2,10.63,10.63,0,0,0-1.3,5.82,15.68,15.68,0,0,0,.32,3.33,7.55,7.55,0,0,0,1,2.42,4.18,4.18,0,0,0,1.6,1.45,4.79,4.79,0,0,0,2.23.49,5.58,5.58,0,0,0,2.23-.41,8.91,8.91,0,0,0,1.63-.9c.47-.34.86-.64,1.18-.91a1.36,1.36,0,0,1,.79-.41.56.56,0,0,1,.38.14.89.89,0,0,1,.24.48,7.31,7.31,0,0,1,.13.91C852.61,710.71,852.63,711.19,852.63,711.77Z" style="fill:#86857e"/><path d="M862.43,715.49a.73.73,0,0,1-.15.46,1.13,1.13,0,0,1-.51.33,3.9,3.9,0,0,1-1,.2c-.4,0-.91.06-1.52.06s-1.12,0-1.52-.06a3.9,3.9,0,0,1-1-.2,1.13,1.13,0,0,1-.51-.33.73.73,0,0,1-.15-.46V681a.8.8,0,0,1,.15-.47,1.07,1.07,0,0,1,.51-.35,4.23,4.23,0,0,1,1-.23,14.48,14.48,0,0,1,3,0,4.23,4.23,0,0,1,1,.23,1.07,1.07,0,0,1,.51.35.8.8,0,0,1,.15.47Z" style="fill:#86857e"/><path d="M888.76,715.49a.85.85,0,0,1-.12.46,1,1,0,0,1-.44.33,3,3,0,0,1-.82.2,11.39,11.39,0,0,1-1.29.06,11.8,11.8,0,0,1-1.33-.06,2.81,2.81,0,0,1-.81-.2.91.91,0,0,1-.42-.33.78.78,0,0,1-.13-.46v-2.7a14.28,14.28,0,0,1-3.75,3.15,8.09,8.09,0,0,1-3.95,1,8.45,8.45,0,0,1-3.86-.79,6.72,6.72,0,0,1-2.51-2.15,8.85,8.85,0,0,1-1.37-3.16,20.16,20.16,0,0,1-.42-4.48V692.07a.81.81,0,0,1,.14-.46,1,1,0,0,1,.5-.33,4.48,4.48,0,0,1,1-.19,12.86,12.86,0,0,1,1.51-.07,12.71,12.71,0,0,1,1.52.07,4.49,4.49,0,0,1,1,.19,1.13,1.13,0,0,1,.51.33.75.75,0,0,1,.15.46V705.3a13.13,13.13,0,0,0,.23,2.81,5,5,0,0,0,.68,1.67,3.18,3.18,0,0,0,1.17,1.08,3.53,3.53,0,0,0,1.66.38,4,4,0,0,0,2.41-.92,15.19,15.19,0,0,0,2.58-2.68V692.07a.8.8,0,0,1,.13-.46,1.09,1.09,0,0,1,.5-.33,4.63,4.63,0,0,1,1-.19,16.65,16.65,0,0,1,3,0,4.28,4.28,0,0,1,.94.19,1.09,1.09,0,0,1,.5.33.75.75,0,0,1,.15.46Z" style="fill:#86857e"/><path d="M909.7,708.88a8.09,8.09,0,0,1-.71,3.51,6.87,6.87,0,0,1-2,2.55,8.78,8.78,0,0,1-3.07,1.54,13.82,13.82,0,0,1-3.84.51,13.1,13.1,0,0,1-2.38-.2,12.56,12.56,0,0,1-2-.5,10.27,10.27,0,0,1-1.5-.61,3.68,3.68,0,0,1-.87-.59,2,2,0,0,1-.43-.87,7.73,7.73,0,0,1-.14-1.75c0-.5,0-.91,0-1.22a4.19,4.19,0,0,1,.15-.73.68.68,0,0,1,.25-.37.74.74,0,0,1,.38-.09,1.82,1.82,0,0,1,.81.33c.36.22.8.46,1.33.72a12.9,12.9,0,0,0,1.86.73,7.77,7.77,0,0,0,2.4.34,5.74,5.74,0,0,0,1.51-.18,3.8,3.8,0,0,0,1.15-.52,2.22,2.22,0,0,0,.74-.87,2.87,2.87,0,0,0,.25-1.21,2.07,2.07,0,0,0-.47-1.35,4,4,0,0,0-1.22-1,12.61,12.61,0,0,0-1.72-.78c-.64-.25-1.29-.52-2-.82a17.52,17.52,0,0,1-2-1,7.79,7.79,0,0,1-1.72-1.42,6.45,6.45,0,0,1-1.22-2,7.76,7.76,0,0,1-.46-2.84,7.57,7.57,0,0,1,.62-3.08,6.79,6.79,0,0,1,1.8-2.41,8.29,8.29,0,0,1,2.85-1.54,12,12,0,0,1,3.78-.56,13.36,13.36,0,0,1,2,.16,14.34,14.34,0,0,1,1.78.4,6.85,6.85,0,0,1,1.35.51,4.26,4.26,0,0,1,.79.47,1.27,1.27,0,0,1,.33.39,1.59,1.59,0,0,1,.15.48c0,.18.06.41.09.68s0,.61,0,1,0,.86,0,1.16a4.49,4.49,0,0,1-.12.71.64.64,0,0,1-.24.35.68.68,0,0,1-.35.09,1.69,1.69,0,0,1-.7-.27,10.61,10.61,0,0,0-1.18-.6,15.48,15.48,0,0,0-1.65-.59,7.65,7.65,0,0,0-2.13-.27,5.27,5.27,0,0,0-1.47.18,2.59,2.59,0,0,0-1,.53,2,2,0,0,0-.6.8,2.29,2.29,0,0,0-.2,1,2.05,2.05,0,0,0,.47,1.37,4.33,4.33,0,0,0,1.25,1,14,14,0,0,0,1.76.79c.65.24,1.32.51,2,.8a17.86,17.86,0,0,1,2,1A7.47,7.47,0,0,1,908,704.1a6.58,6.58,0,0,1,1.25,2A7.27,7.27,0,0,1,909.7,708.88Z" style="fill:#86857e"/><path d="M920.15,684.14a3.87,3.87,0,0,1-.77,2.76,5.83,5.83,0,0,1-5.72,0,3.71,3.71,0,0,1-.74-2.65,3.92,3.92,0,0,1,.76-2.77,4,4,0,0,1,2.88-.77,4.09,4.09,0,0,1,2.84.74A3.74,3.74,0,0,1,920.15,684.14Zm-.47,31.35a.73.73,0,0,1-.15.46,1.13,1.13,0,0,1-.51.33,3.9,3.9,0,0,1-1,.2c-.4,0-.91.06-1.52.06s-1.12,0-1.52-.06a3.9,3.9,0,0,1-1-.2,1.17,1.17,0,0,1-.52-.33.78.78,0,0,1-.14-.46V692.12a.83.83,0,0,1,.14-.46,1.27,1.27,0,0,1,.52-.34,4.29,4.29,0,0,1,1-.22,14.48,14.48,0,0,1,3,0,4.29,4.29,0,0,1,1,.22,1.22,1.22,0,0,1,.51.34.77.77,0,0,1,.15.46Z" style="fill:#86857e"/><path d="M947.4,703.55a19.12,19.12,0,0,1-.74,5.46,11.81,11.81,0,0,1-2.27,4.25,10.19,10.19,0,0,1-3.82,2.76,13.61,13.61,0,0,1-5.36,1,13.94,13.94,0,0,1-5.16-.87,9.1,9.1,0,0,1-3.64-2.52,10.48,10.48,0,0,1-2.14-4.07,19.71,19.71,0,0,1-.7-5.51,18.57,18.57,0,0,1,.76-5.48,11.81,11.81,0,0,1,2.28-4.25,10.2,10.2,0,0,1,3.8-2.75,13.73,13.73,0,0,1,5.35-1,14.28,14.28,0,0,1,5.19.86,8.94,8.94,0,0,1,3.62,2.51A10.4,10.4,0,0,1,946.7,698,19.78,19.78,0,0,1,947.4,703.55Zm-6.45.26a17.49,17.49,0,0,0-.27-3.19,7.85,7.85,0,0,0-.88-2.54,4.69,4.69,0,0,0-1.66-1.68,5.13,5.13,0,0,0-2.6-.6,5.3,5.3,0,0,0-2.45.54,4.53,4.53,0,0,0-1.72,1.57,7.89,7.89,0,0,0-1,2.5,15.11,15.11,0,0,0-.33,3.32,17.49,17.49,0,0,0,.27,3.19,8,8,0,0,0,.89,2.53,4.21,4.21,0,0,0,1.65,1.67,5.95,5.95,0,0,0,5.06,0,4.37,4.37,0,0,0,1.72-1.56,7.24,7.24,0,0,0,1-2.48A15.11,15.11,0,0,0,941,703.81Zm-4.24-23.24a1.83,1.83,0,0,1,.42-.5,1.88,1.88,0,0,1,.63-.33,4.69,4.69,0,0,1,.94-.17c.38,0,.85-.05,1.4-.05a12.32,12.32,0,0,1,1.81.1,2.22,2.22,0,0,1,.94.31.49.49,0,0,1,.27.45,1.15,1.15,0,0,1-.25.56L938,687a2.81,2.81,0,0,1-.4.43,1.38,1.38,0,0,1-.51.28,4.2,4.2,0,0,1-.79.16c-.31,0-.71.05-1.19.05a10,10,0,0,1-1.39-.08,1.52,1.52,0,0,1-.71-.25.46.46,0,0,1-.16-.43,1.61,1.61,0,0,1,.26-.61Z" style="fill:#86857e"/><path d="M972.58,715.49a.78.78,0,0,1-.14.46,1.15,1.15,0,0,1-.5.33,3.9,3.9,0,0,1-1,.2c-.41,0-.91.06-1.51.06s-1.13,0-1.53-.06a3.7,3.7,0,0,1-1-.2,1.09,1.09,0,0,1-.5-.33.73.73,0,0,1-.15-.46V702.13a11.72,11.72,0,0,0-.24-2.68,5.52,5.52,0,0,0-.69-1.67,3,3,0,0,0-1.15-1.07,3.42,3.42,0,0,0-1.66-.39,4,4,0,0,0-2.42.92,13.53,13.53,0,0,0-2.54,2.68v15.57a.73.73,0,0,1-.15.46,1.11,1.11,0,0,1-.52.33,3.91,3.91,0,0,1-1,.2q-.6.06-1.53.06c-.61,0-1.12,0-1.52-.06a4,4,0,0,1-1-.2,1.13,1.13,0,0,1-.51-.33.73.73,0,0,1-.15-.46V692.07a.8.8,0,0,1,.13-.46.91.91,0,0,1,.45-.33,3.53,3.53,0,0,1,.83-.19A9.23,9.23,0,0,1,954,691a9.71,9.71,0,0,1,1.32.07,3,3,0,0,1,.81.19.93.93,0,0,1,.41.33.88.88,0,0,1,.12.46v2.71a14,14,0,0,1,3.76-3.16,8.11,8.11,0,0,1,4-1,8.51,8.51,0,0,1,3.83.79,6.84,6.84,0,0,1,2.52,2.14,8.86,8.86,0,0,1,1.38,3.17,19.48,19.48,0,0,1,.42,4.35Z" style="fill:#86857e"/><path d="M1007.74,706.2a10.87,10.87,0,0,1-1,4.7,9.58,9.58,0,0,1-2.56,3.37,11.17,11.17,0,0,1-3.79,2,15.54,15.54,0,0,1-4.64.68,15.85,15.85,0,0,1-3.1-.29,17.1,17.1,0,0,1-2.54-.69,10.51,10.51,0,0,1-1.83-.86,5.06,5.06,0,0,1-1.06-.79,2,2,0,0,1-.46-1,9.57,9.57,0,0,1-.14-1.85c0-.54,0-1,.05-1.37a4.27,4.27,0,0,1,.17-.89.94.94,0,0,1,.3-.49.69.69,0,0,1,.43-.14,2,2,0,0,1,1,.43,15.73,15.73,0,0,0,1.63,1,14.33,14.33,0,0,0,2.38,1,10.68,10.68,0,0,0,3.2.43,7.11,7.11,0,0,0,2.15-.3,4.66,4.66,0,0,0,1.61-.85,3.66,3.66,0,0,0,1-1.37,4.56,4.56,0,0,0,.34-1.81,3.27,3.27,0,0,0-.59-2,6.12,6.12,0,0,0-1.56-1.47,16.42,16.42,0,0,0-2.18-1.21c-.82-.38-1.66-.77-2.52-1.2a20.34,20.34,0,0,1-2.52-1.43,10.42,10.42,0,0,1-2.18-1.91,9.31,9.31,0,0,1-1.56-2.64,10,10,0,0,1-.6-3.65,10.19,10.19,0,0,1,.86-4.3,8.94,8.94,0,0,1,2.32-3.07,9.69,9.69,0,0,1,3.44-1.82,14.08,14.08,0,0,1,4.2-.61,13.73,13.73,0,0,1,2.3.19,14.59,14.59,0,0,1,2.14.5,11.45,11.45,0,0,1,1.77.7,4.22,4.22,0,0,1,1,.66,2,2,0,0,1,.34.45,2,2,0,0,1,.15.48,6.37,6.37,0,0,1,.09.76c0,.31,0,.69,0,1.15s0,.93,0,1.28a4.56,4.56,0,0,1-.12.87,1.06,1.06,0,0,1-.25.5.62.62,0,0,1-.44.16,2.12,2.12,0,0,1-.87-.37c-.4-.25-.89-.51-1.47-.8a14,14,0,0,0-2-.79,8.34,8.34,0,0,0-2.52-.35,5.9,5.9,0,0,0-1.87.27,4,4,0,0,0-1.33.76,3.14,3.14,0,0,0-.8,1.17,4.14,4.14,0,0,0-.26,1.45,3.35,3.35,0,0,0,.58,1.95,5.9,5.9,0,0,0,1.58,1.47,15.49,15.49,0,0,0,2.23,1.21c.83.38,1.68.78,2.54,1.2a22.83,22.83,0,0,1,2.54,1.43,10.15,10.15,0,0,1,2.22,1.91,9,9,0,0,1,1.57,2.63A9.62,9.62,0,0,1,1007.74,706.2Z" style="fill:#86857e"/><path d="M1033.84,703.55a18.78,18.78,0,0,1-.74,5.46,11.81,11.81,0,0,1-2.27,4.25A10.11,10.11,0,0,1,1027,716a13.57,13.57,0,0,1-5.36,1,14,14,0,0,1-5.16-.87,9.17,9.17,0,0,1-3.64-2.52,10.48,10.48,0,0,1-2.14-4.07,19.71,19.71,0,0,1-.7-5.51,18.57,18.57,0,0,1,.76-5.48,11.81,11.81,0,0,1,2.28-4.25,10.24,10.24,0,0,1,3.81-2.75,13.68,13.68,0,0,1,5.34-1,14.25,14.25,0,0,1,5.19.86,9,9,0,0,1,3.63,2.51,10.66,10.66,0,0,1,2.13,4.07A20.18,20.18,0,0,1,1033.84,703.55Zm-6.45.26a18.47,18.47,0,0,0-.26-3.19,7.85,7.85,0,0,0-.89-2.54,4.61,4.61,0,0,0-1.66-1.68,5.13,5.13,0,0,0-2.6-.6,5.23,5.23,0,0,0-2.44.54,4.49,4.49,0,0,0-1.73,1.57,7.88,7.88,0,0,0-1,2.5,14.49,14.49,0,0,0-.34,3.32,17.49,17.49,0,0,0,.27,3.19,8.2,8.2,0,0,0,.89,2.53,4.27,4.27,0,0,0,1.65,1.67,6,6,0,0,0,5.07,0,4.51,4.51,0,0,0,1.72-1.56,7.24,7.24,0,0,0,1-2.48A15.11,15.11,0,0,0,1027.39,703.81Z" style="fill:#86857e"/><path d="M1054.62,711.77c0,.45,0,.83,0,1.14s-.06.56-.1.77a2.24,2.24,0,0,1-.15.51,2,2,0,0,1-.39.5,5.64,5.64,0,0,1-1,.74,9.73,9.73,0,0,1-1.65.77,12.38,12.38,0,0,1-2,.55,11.79,11.79,0,0,1-2.23.21,11.54,11.54,0,0,1-4.55-.84,8.46,8.46,0,0,1-3.33-2.48,10.94,10.94,0,0,1-2-4,19.36,19.36,0,0,1-.69-5.41,19.9,19.9,0,0,1,.83-6.08,11.76,11.76,0,0,1,2.34-4.24,9.27,9.27,0,0,1,3.54-2.5,12.06,12.06,0,0,1,4.48-.81,10.59,10.59,0,0,1,2,.18,11.82,11.82,0,0,1,1.8.5,9.83,9.83,0,0,1,1.49.71,4.89,4.89,0,0,1,.94.68,2.86,2.86,0,0,1,.38.49,1.52,1.52,0,0,1,.18.51c0,.21.07.47.1.78s0,.68,0,1.11a6.5,6.5,0,0,1-.25,2.14c-.17.41-.39.62-.65.62a1.46,1.46,0,0,1-.9-.37c-.32-.24-.69-.51-1.12-.81a8.29,8.29,0,0,0-1.55-.82,5.74,5.74,0,0,0-2.14-.36,4.2,4.2,0,0,0-3.74,2,10.63,10.63,0,0,0-1.3,5.82,15,15,0,0,0,.33,3.33,7.12,7.12,0,0,0,1,2.42,4.08,4.08,0,0,0,1.59,1.45,4.82,4.82,0,0,0,2.23.49,5.55,5.55,0,0,0,2.23-.41,9,9,0,0,0,1.64-.9c.46-.34.85-.64,1.17-.91a1.35,1.35,0,0,1,.8-.41.53.53,0,0,1,.37.14.89.89,0,0,1,.24.48,7.08,7.08,0,0,1,.14.91C1054.6,710.71,1054.62,711.19,1054.62,711.77Z" style="fill:#86857e"/><path d="M1064.89,684.14a3.83,3.83,0,0,1-.78,2.76,5.83,5.83,0,0,1-5.72,0,3.72,3.72,0,0,1-.73-2.65,3.92,3.92,0,0,1,.76-2.77,4,4,0,0,1,2.88-.77,4.1,4.1,0,0,1,2.84.74A3.74,3.74,0,0,1,1064.89,684.14Zm-.48,31.35a.73.73,0,0,1-.15.46,1.13,1.13,0,0,1-.51.33,3.9,3.9,0,0,1-1,.2c-.4,0-.9.06-1.52.06s-1.12,0-1.52-.06a3.9,3.9,0,0,1-1-.2,1.13,1.13,0,0,1-.51-.33.73.73,0,0,1-.15-.46V692.12a.77.77,0,0,1,.15-.46,1.22,1.22,0,0,1,.51-.34,4.29,4.29,0,0,1,1-.22,14.48,14.48,0,0,1,3,0,4.29,4.29,0,0,1,1,.22,1.22,1.22,0,0,1,.51.34.77.77,0,0,1,.15.46Z" style="fill:#86857e"/><path d="M1088.6,715.57a.7.7,0,0,1-.25.58,1.67,1.67,0,0,1-.79.3,10.2,10.2,0,0,1-1.58.09,10.41,10.41,0,0,1-1.63-.09,1.35,1.35,0,0,1-.72-.3.75.75,0,0,1-.22-.58v-1.86a9.93,9.93,0,0,1-3.13,2.41,8.66,8.66,0,0,1-3.9.87,10.21,10.21,0,0,1-3.25-.49,7.11,7.11,0,0,1-2.57-1.44,6.51,6.51,0,0,1-1.68-2.38,8.4,8.4,0,0,1-.6-3.31,7.74,7.74,0,0,1,.76-3.55,6.39,6.39,0,0,1,2.27-2.5,10.88,10.88,0,0,1,3.75-1.45,25.12,25.12,0,0,1,5.21-.48h2.17V700a8,8,0,0,0-.21-1.93,3.13,3.13,0,0,0-.7-1.37,2.9,2.9,0,0,0-1.29-.82,6.81,6.81,0,0,0-2-.26,9.66,9.66,0,0,0-2.81.37,14.71,14.71,0,0,0-2.18.81c-.63.3-1.16.57-1.58.82a2.29,2.29,0,0,1-1,.36.72.72,0,0,1-.48-.18,1.33,1.33,0,0,1-.35-.53,3.66,3.66,0,0,1-.21-.84,7.37,7.37,0,0,1-.08-1.1,5,5,0,0,1,.13-1.29,2,2,0,0,1,.47-.85,4.8,4.8,0,0,1,1.22-.84,12.94,12.94,0,0,1,2-.85,17.56,17.56,0,0,1,2.55-.65,16.63,16.63,0,0,1,2.86-.25,16.18,16.18,0,0,1,4.47.54,7.4,7.4,0,0,1,3.06,1.66,6.46,6.46,0,0,1,1.74,2.87,14,14,0,0,1,.55,4.18Zm-6.16-10h-2.39a12.11,12.11,0,0,0-2.6.24,4.8,4.8,0,0,0-1.74.71,2.83,2.83,0,0,0-1,1.14,3.75,3.75,0,0,0-.31,1.54,3,3,0,0,0,.89,2.31,3.42,3.42,0,0,0,2.45.84,4.51,4.51,0,0,0,2.44-.71,10.59,10.59,0,0,0,2.25-2.08Z" style="fill:#86857e"/><path d="M1100.12,715.49a.73.73,0,0,1-.15.46,1.13,1.13,0,0,1-.51.33,3.9,3.9,0,0,1-1,.2c-.4,0-.91.06-1.52.06s-1.12,0-1.52-.06a3.9,3.9,0,0,1-1-.2,1.17,1.17,0,0,1-.52-.33.78.78,0,0,1-.14-.46V681a.86.86,0,0,1,.14-.47,1.11,1.11,0,0,1,.52-.35,4.23,4.23,0,0,1,1-.23,14.48,14.48,0,0,1,3,0,4.23,4.23,0,0,1,1,.23,1.07,1.07,0,0,1,.51.35.8.8,0,0,1,.15.47Z" style="fill:#86857e"/><path d="M405.25,565c-1.1,5.37-10.45,10.18-20.88,10.21S364.22,571,362.89,565V694.48c0,13.81,6.5,24.88,22.34,25,16.14.09,20-10.3,20-25.37Z" style="fill:#6cb7cc"/><path d="M198,594.25c-1-17.15-12.58-50-55.52-54.28-49.39,0-49.13,43.38-49.29,58.77v109.7L82.51,719.13l64.22.06-10.92-10.7-.08-53.14C167,659.37,200.07,631.85,198,594.25Zm-72.9,3.06a19.52,19.52,0,1,1,19.52,19.63A19.58,19.58,0,0,1,125.06,597.31Z" style="fill:#c20d19"/></svg>